<?xml version="1.0" standalone="no"?><!DOCTYPE svg PUBLIC "-//W3C//DTD SVG 1.1//EN" "http://www.w3.org/Graphics/SVG/1.1/DTD/svg11.dtd"><svg t="1604763329496" class="icon" viewBox="0 0 1059 1024" version="1.1" xmlns="http://www.w3.org/2000/svg" p-id="1792" data-spm-anchor-id="a313x.7781069.0.i12" xmlns:xlink="http://www.w3.org/1999/xlink" width="41.3671875" height="40"><defs><style type="text/css"></style></defs><path d="M1025.54504937 396.03326281c-0.20802563-59.51991-330.6756825-66.67845188-330.6756825-66.67845094s-83.846715-297.35481187-166.06593187-297.35481187C446.86566406 32.04894688 361.31803156 331.37388781 361.31803156 331.37388781S32.44116219 320.519825 32.00063656 396.03326281c-0.44052562 74.64462375 229.51386188 250.85488219 229.51386188 250.85488313s-80.27356219 295.62942-39.76967625 338.09119687c41.72756812 40.10007094 307.67045438-141.00491719 307.67045344-141.00491718s262.36973344 185.99971781 306.37335093 141.00491718c44.05256437-48.32321625-38.47257281-338.09119687-38.47257281-338.09119687s228.46149562-188.32471406 228.22899563-250.85488313z m-541.61404687 51.59044875c-155.62792125 73.23738844-307.5603225-0.37934156-307.5603225-0.37934156-64.31674406-62.82385219 101.73695062-38.86415156 101.73695156-38.86415156s-1.92118125-2.77775906 107.31694219-17.76786844 128.35204219-224.15413313 128.35204219-224.15413313c8.957355-50.86847531 38.888625-32.91705562 38.888625-32.91705562s67.44937125 240.3556875-68.73423844 314.08255031z" fill="#ecbd18" p-id="1793" data-spm-anchor-id="a313x.7781069.0.i5" class=""></path></svg>